<svg width="100" height="120" viewBox="0 0 100 120" fill="none" xmlns="http://www.w3.org/2000/svg">
<style>
  path {
    fill:black;
  }

  @media (prefers-color-scheme: dark) {
   path {
      fill:white;
    } 
  }
</style>
<path fill-rule="evenodd" clip-rule="evenodd" d="M63.8363 0.0091411L63.726 0H16.3884L15.9946 0.124546C14.1607 0.704677 8.57813 2.72034 4.57175 8.50313L4.57035 8.50517C1.64847 12.7309 1.01633 17.0318 0.768867 19.4437C-0.178828 28.5767 -0.326062 54.6171 0.755331 89.3259C0.784145 91.0184 0.810913 92.7112 0.837711 94.4059L0.837732 94.4072L0.920453 99.5073L0.924437 99.7413L0.96899 99.971C1.26813 101.513 1.84791 103.665 3.0459 106.023L3.04735 106.026L3.04881 106.029C3.67702 107.259 5.53489 110.816 9.35193 113.65L9.35322 113.651C15.3202 118.076 21.9987 117.741 24.264 117.504C26.6591 117.255 32.9504 116.217 37.978 110.81C41.4454 107.087 42.6793 103.053 43.1403 101.067L43.1989 100.815L43.208 100.557C43.3484 96.5763 43.4867 92.5981 43.625 88.6206L43.6256 88.6017L43.6257 88.5998L43.6258 88.598C43.7354 85.4448 43.845 82.292 43.9557 79.1384C47.0503 79.131 49.9699 79.1748 52.0061 79.2277C62.0604 78.8511 67.6427 78.6241 73.4521 76.7623C76.2392 75.8714 79.8813 74.6813 83.6043 72.4549C84.9839 74.622 85.9557 76.8856 86.5167 79.0017L86.5171 79.0033L86.5176 79.005C87.2225 81.6505 87.2796 83.9849 87.1863 85.6527C87.052 87.2278 86.8266 88.8046 86.5849 90.4958L86.5848 90.4963L86.5848 90.4965C86.4598 91.3709 86.3305 92.276 86.2071 93.2273C85.8562 95.9321 85.5818 98.8478 85.7812 101.803C86.1926 107.901 88.6195 113.965 95.7558 119.12C96.9533 119.985 98.6252 119.715 99.4902 118.518C100.355 117.32 100.086 115.648 98.8882 114.783C93.1571 110.643 91.4327 106.101 91.1185 101.443C90.955 99.0198 91.1742 96.5195 91.512 93.9155C91.6152 93.1197 91.733 92.2942 91.8524 91.4564C92.1088 89.6586 92.3732 87.8042 92.5198 86.0664L92.5228 86.0308L92.5249 85.9951C92.6438 83.9277 92.5809 80.9845 91.687 77.6292C90.9608 74.8906 89.7108 72.0294 87.9547 69.3302C89.0027 68.4309 90.0325 67.4236 91.0263 66.291L91.0304 66.2946C96.0961 60.518 97.639 54.411 98.6069 50.5801L98.6343 50.4717C101.366 39.6079 99.2632 30.8176 98.6264 28.4051L98.6263 28.4046C97.678 24.8144 95.8221 18.053 89.9604 11.8666L89.9583 11.8644C85.3656 7.02853 80.4497 4.7801 77.7366 3.57238C72.1534 1.08507 67.1357 0.282619 63.8363 0.0091411ZM35.72 79.3118C36.6399 79.2688 37.6081 79.2351 38.6005 79.2092C38.4934 82.264 38.3872 85.3176 38.281 88.3708L38.2795 88.4158L38.2794 88.4174L38.279 88.4279L38.2787 88.4374L38.2781 88.4534L38.2776 88.4694L38.277 88.4854L38.2765 88.5014L38.2758 88.519C38.1416 92.379 38.0075 96.2383 37.8714 100.099C37.4807 101.67 36.5157 104.531 34.0624 107.165L34.0609 107.167C30.8031 110.671 26.7775 111.732 24.547 112.075C24.2296 112.124 23.9486 112.158 23.7113 112.183L23.7086 112.183C21.8697 112.376 16.8743 112.568 12.5396 109.354C9.74451 107.278 8.34451 104.636 7.81392 103.598C6.95171 101.9 6.50648 100.34 6.26498 99.1741C6.23766 97.5589 6.21211 95.9434 6.18654 94.3261L6.18653 94.3261L6.18653 94.326L6.18653 94.3259L6.18653 94.3258L6.18653 94.3257L6.18653 94.3256L6.18653 94.3255L6.18652 94.3254L6.18652 94.3253L6.18648 94.3226L6.18646 94.3213L6.18645 94.321L6.18639 94.3171L6.18633 94.3133C6.16583 93.017 6.14532 91.7197 6.12387 90.4219C7.75285 88.967 9.97351 87.2126 12.8043 85.552L12.8081 85.5498C14.5762 84.5088 18.1352 82.5923 24.1094 81.0649C24.8145 80.9019 25.5066 80.7551 26.187 80.6166C26.631 80.5263 27.0699 80.4395 27.5044 80.354L27.5057 80.3537C29.6938 79.9244 32.4658 79.5047 35.72 79.3118ZM45.653 74.0265C47.3724 74.014 49.3851 73.973 51.8053 73.8821L51.8056 73.8821C62.0599 73.4979 66.8477 73.2618 71.821 71.6676L71.8231 71.6669C74.3686 70.8532 77.2892 69.881 80.2025 68.2451C77.5339 65.6179 74.118 63.546 69.9637 62.6183C58.6571 60.1074 50.2752 68.0246 49.61 68.6823L49.6087 68.6835C47.8273 70.4426 46.5581 72.3158 45.653 74.0265ZM39.8245 73.8533C36.0245 73.8323 32.6705 74.129 29.8628 74.5304L29.0783 74.584C26.8005 74.9508 24.7389 75.3856 22.8793 75.858C19.5491 76.6292 15.7336 77.7883 11.5165 80.0536L11.5158 80.054C9.37964 81.2024 7.52297 82.4275 5.9377 83.614C5.03871 51.6597 5.23448 28.2351 6.08986 19.9944L6.09003 19.9928L6.0902 19.9912C6.30592 17.8879 6.81526 14.6651 8.96951 11.5488C11.7419 7.54763 15.5507 5.9266 17.2304 5.34942H63.5028C66.39 5.59721 70.7345 6.30918 75.5597 8.45883L75.5605 8.45915C78.123 9.59986 82.236 11.5023 86.0773 15.546C90.9658 20.7052 92.5501 26.3478 93.4542 29.7703C93.9917 31.8068 95.8587 39.5721 93.4463 49.1673C92.4945 52.9335 91.2073 57.977 87.0127 62.7626L87.0086 62.759C86.2412 63.634 85.4476 64.4197 84.6369 65.1282C81.2563 61.5648 76.7514 58.6525 71.1279 57.3971L71.1252 57.3965C56.9034 54.2371 46.6662 64.0704 45.8501 64.8771L45.8488 64.8784C42.7662 67.9227 40.9263 71.2208 39.8245 73.8533Z" fill="currentColor"/>
</svg>
