<svg width="305" height="434" viewBox="0 0 305 434" fill="none" xmlns="http://www.w3.org/2000/svg">
<mask id="path-1-outside-1" maskUnits="userSpaceOnUse" x="0" y="0" width="305" height="434" fill="black">
<rect fill="white" width="305" height="434"/>
<path fill-rule="evenodd" clip-rule="evenodd" d="M40.0546 24C31.1879 24 24 31.1879 24 40.0547V393.256C24 402.123 31.1879 409.311 40.0546 409.311C48.9213 409.311 56.1092 402.123 56.1092 393.256V140.315C56.5474 139.126 56.8778 137.887 57.0887 136.616C58.2911 129.37 60.3182 122.268 63.1422 115.45C67.9995 103.724 75.1188 93.0687 84.0938 84.0938C93.0687 75.1188 103.724 67.9995 115.45 63.1423C127.176 58.285 139.744 55.7851 152.437 55.7851C165.13 55.7851 177.698 58.285 189.424 63.1422C201.15 67.9995 211.805 75.1188 220.78 84.0938C229.755 93.0687 236.875 103.724 241.732 115.45C244.556 122.268 246.583 129.37 247.785 136.616C249.222 145.275 256.204 152.437 264.981 152.437C273.759 152.437 280.975 145.295 279.892 136.585C278.472 125.165 275.52 113.963 271.097 103.286C264.643 87.7036 255.182 73.5448 243.256 61.6183C231.329 49.6918 217.17 40.2312 201.588 33.7767C186.005 27.3221 169.304 24 152.437 24C135.57 24 118.869 27.3221 103.286 33.7767C87.7036 40.2313 73.5448 49.6919 61.6183 61.6183C59.7187 63.518 57.8816 65.4743 56.1092 67.4839V40.0546C56.1092 31.1879 48.9213 24 40.0546 24Z"/>
</mask>
<path d="M56.1092 140.315L33.5899 132.015C32.6105 134.673 32.1092 137.483 32.1092 140.315H56.1092ZM57.0887 136.616L33.4125 132.687L33.4125 132.687L57.0887 136.616ZM63.1422 115.45L85.3154 124.634L85.3154 124.634L63.1422 115.45ZM84.0938 84.0938L101.064 101.064V101.064L84.0938 84.0938ZM115.45 63.1423L106.265 40.9691L106.265 40.9691L115.45 63.1423ZM152.437 55.7851V79.7851V55.7851ZM189.424 63.1422L180.24 85.3154V85.3154L189.424 63.1422ZM220.78 84.0938L237.751 67.1232V67.1232L220.78 84.0938ZM241.732 115.45L219.559 124.634L241.732 115.45ZM247.785 136.616L224.109 140.544L224.109 140.545L247.785 136.616ZM279.892 136.585L256.075 139.547V139.547L279.892 136.585ZM271.097 103.286L248.924 112.471V112.471L271.097 103.286ZM243.256 61.6183L226.285 78.5889L226.285 78.5889L243.256 61.6183ZM201.588 33.7767L210.772 11.6036V11.6036L201.588 33.7767ZM103.286 33.7767L112.471 55.9498V55.9498L103.286 33.7767ZM61.6183 61.6183L78.5889 78.5889L78.5889 78.5889L61.6183 61.6183ZM56.1092 67.4839H32.1092C32.1092 77.4654 38.2872 86.4049 47.624 89.9338C56.9608 93.4628 67.5071 90.8445 74.1092 83.3584L56.1092 67.4839ZM48 40.0547C48 44.4427 44.4428 48 40.0546 48V0C17.933 0 0 17.9332 0 40.0547H48ZM48 393.256V40.0547H0V393.256H48ZM40.0546 385.311C44.4427 385.311 48 388.868 48 393.256H0C0 415.378 17.9331 433.311 40.0546 433.311V385.311ZM32.1092 393.256C32.1092 388.868 35.6665 385.311 40.0546 385.311V433.311C62.1762 433.311 80.1092 415.378 80.1092 393.256H32.1092ZM32.1092 140.315V393.256H80.1092V140.315H32.1092ZM78.6286 148.614C79.5829 146.025 80.304 143.323 80.765 140.545L33.4125 132.687C33.4517 132.451 33.5118 132.227 33.5899 132.015L78.6286 148.614ZM80.765 140.545C81.6688 135.098 83.1926 129.759 85.3154 124.634L40.9691 106.265C37.4439 114.776 34.9133 123.642 33.4125 132.687L80.765 140.545ZM85.3154 124.634C88.9665 115.82 94.318 107.811 101.064 101.064L67.1232 67.1232C55.9196 78.3268 47.0325 91.6273 40.9691 106.266L85.3154 124.634ZM101.064 101.064C107.811 94.318 115.82 88.9665 124.634 85.3154L106.265 40.9691C91.6273 47.0325 78.3268 55.9196 67.1232 67.1232L101.064 101.064ZM124.634 85.3154C133.449 81.6643 142.896 79.7851 152.437 79.7851V31.7851C136.593 31.7851 120.904 34.9058 106.265 40.9691L124.634 85.3154ZM152.437 79.7851C161.978 79.7851 171.425 81.6643 180.24 85.3154L198.608 40.9691C183.97 34.9058 168.281 31.7851 152.437 31.7851V79.7851ZM180.24 85.3154C189.054 88.9665 197.063 94.318 203.81 101.064L237.751 67.1232C226.547 55.9196 213.247 47.0325 198.608 40.9691L180.24 85.3154ZM203.81 101.064C210.556 107.811 215.908 115.82 219.559 124.634L263.905 106.266C257.842 91.6273 248.954 78.3267 237.751 67.1232L203.81 101.064ZM219.559 124.634C221.681 129.759 223.205 135.098 224.109 140.544L271.462 132.687C269.961 123.642 267.43 114.776 263.905 106.266L219.559 124.634ZM224.109 140.545C227.064 158.352 242.161 176.437 264.981 176.437V128.437C267.399 128.437 269.223 129.482 270.166 130.378C271.005 131.176 271.344 131.982 271.462 132.687L224.109 140.545ZM264.981 176.437C286.089 176.437 306.822 158.659 303.708 133.623L256.075 139.547C255.66 136.21 256.953 133.098 258.841 131.136C260.602 129.306 262.849 128.437 264.981 128.437V176.437ZM303.708 133.623C302.023 120.069 298.519 106.774 293.27 94.1019L248.924 112.471C252.52 121.152 254.921 130.261 256.075 139.547L303.708 133.623ZM293.27 94.1019C285.61 75.6074 274.381 58.8028 260.226 44.6478L226.285 78.5889C235.983 88.2868 243.676 99.7998 248.924 112.471L293.27 94.1019ZM260.226 44.6478C246.071 30.4927 229.267 19.2643 210.772 11.6036L192.403 55.9498C205.074 61.1982 216.587 68.891 226.285 78.5889L260.226 44.6478ZM210.772 11.6036C192.278 3.9429 172.455 0 152.437 0V48C166.152 48 179.732 50.7013 192.403 55.9498L210.772 11.6036ZM152.437 0C132.419 0 112.596 3.9429 94.1019 11.6036L112.471 55.9498C125.142 50.7013 138.722 48 152.437 48V0ZM94.1019 11.6036C75.6074 19.2643 58.8028 30.4927 44.6478 44.6478L78.5889 78.5889C88.2868 68.891 99.7998 61.1982 112.471 55.9498L94.1019 11.6036ZM44.6478 44.6478C42.3932 46.9024 40.2128 49.2242 38.1093 51.6094L74.1092 83.3584C75.5504 81.7243 77.0442 80.1336 78.5889 78.5889L44.6478 44.6478ZM32.1092 40.0546V67.4839H80.1092V40.0546H32.1092ZM40.0546 48C35.6665 48 32.1092 44.4427 32.1092 40.0546H80.1092C80.1092 17.9331 62.1762 0 40.0546 0V48Z" fill="#EFEFEF" mask="url(#path-1-outside-1)"/>
</svg>
