<svg width="100" height="89" viewBox="0 0 100 89" fill="none" xmlns="http://www.w3.org/2000/svg">
<style>
  path {
    fill: #fafafa;
  }
</style>
<path fill-rule="evenodd" clip-rule="evenodd" d="M21.8171 4.91111C36.3942 0.123595 73.3495 -7.44001 91.0755 17.7643C92.942 20.1553 94.8167 23.3467 96.8687 31.3953C97.8643 35.3003 98.9017 40.3486 100 47.0035C97.6693 41.6497 95.0958 37.1866 92.364 33.4909C79.896 16.6239 64.1313 15.741 53.1111 19.1046C51.245 17.4322 33.0102 17.24 22.9889 19.3822C22.6394 19.4569 22.2998 19.5345 21.9713 19.6149L14.948 45.826L11.7622 42.6401L17.4543 21.3967C17.4311 21.4139 17.4083 21.4312 17.3859 21.4485L21.8171 4.91111ZM87.231 20.7656C87.4253 21.0146 87.6262 21.2805 87.8336 21.5768C84.8979 19.161 81.8427 17.2879 78.7206 15.8926C69.7169 11.8689 60.7102 12.0677 53.4103 13.9544C52.9458 13.8241 52.4734 13.7211 52.022 13.6371C50.7648 13.403 49.2534 13.2402 47.6428 13.1301C44.3974 12.9082 40.3344 12.8733 36.2188 13.0393C32.2073 13.2011 28.0187 13.5587 24.3888 14.1579L25.8325 8.76984C33.0106 6.65704 43.9317 4.40969 55.0229 4.96205C67.458 5.58134 79.4065 9.65072 87.086 20.5701C87.1327 20.6365 87.181 20.7017 87.231 20.7656Z" fill="currentColor"/>
<path d="M10.5961 46.9921L13.7819 50.1779L3.83586 87.2972C3.55699 88.3379 2.48722 88.9555 1.44647 88.6767C0.40572 88.3978 -0.211909 87.328 0.0669606 86.2873L10.5961 46.9921Z" fill="currentColor"/>
</svg>
