<svg width="381" height="432" viewBox="0 0 381 432" fill="none" xmlns="http://www.w3.org/2000/svg">
<style>
path{
  fill:#333333;
}

@media (prefers-color-scheme: dark) {
  path{
    fill:#efefef;
  }
}
</style>
<path fill-rule="evenodd" clip-rule="evenodd" d="M101.283 57.1594C110.048 51.2911 119.391 46.2862 129.183 42.2301C148.676 34.1558 169.569 30 190.668 30C211.767 30 232.66 34.1558 252.153 42.2301C271.646 50.3044 289.358 62.1391 304.277 77.0585C319.197 91.978 331.031 109.69 339.106 129.183C344.638 142.539 348.331 156.552 350.107 170.838C351.463 181.734 342.435 190.668 331.455 190.668C320.475 190.668 311.741 181.708 309.944 170.877C308.44 161.812 305.904 152.928 302.371 144.399C296.295 129.73 287.389 116.401 276.162 105.174C264.935 93.9469 251.606 85.041 236.937 78.9649C222.268 72.8888 206.546 69.7614 190.668 69.7614C174.79 69.7614 159.068 72.8888 144.399 78.9649C129.73 85.041 116.401 93.9469 105.174 105.174C93.9469 116.401 85.041 129.73 78.9649 144.399C75.4322 152.928 72.8963 161.812 71.3923 170.877C71.3584 171.081 71.322 171.285 71.2831 171.488V380.906C71.2831 392.307 62.0416 401.548 50.6416 401.548C39.2415 401.548 30 392.307 30 380.907V50.6416C30 39.2416 39.2415 30 50.6416 30C59.3957 30 66.877 35.4496 69.8782 43.1413C70.7853 45.4661 71.2831 47.9957 71.2831 50.6416V83.1437C73.1529 81.0677 75.0786 79.0386 77.0585 77.0586C84.4833 69.6338 92.5998 62.9729 101.283 57.1594ZM94.8093 25.8487C86.1308 10.4212 69.6032 0 50.6416 0C22.6729 0 0 22.6731 0 50.6416V380.907C0 408.875 22.673 431.548 50.6416 431.548C78.6102 431.548 101.283 408.875 101.283 380.906V174.105C102.438 167.873 104.244 161.763 106.681 155.88C111.25 144.85 117.946 134.829 126.387 126.387C134.829 117.946 144.85 111.25 155.88 106.681C166.909 102.113 178.73 99.7614 190.668 99.7614C202.606 99.7614 214.427 102.113 225.456 106.681C236.486 111.25 246.507 117.946 254.949 126.387C263.39 134.829 270.086 144.85 274.655 155.88C277.311 162.292 279.217 168.972 280.348 175.787C284.043 198.055 302.921 220.668 331.455 220.668C357.847 220.668 383.772 198.439 379.878 167.135C377.77 150.182 373.387 133.552 366.822 117.702C357.24 94.5696 343.196 73.5505 325.491 55.8453C307.785 38.1402 286.766 24.0957 263.633 14.5137C240.501 4.93177 215.707 0 190.668 0C165.629 0 140.835 4.93178 117.702 14.5137C109.809 17.7831 102.163 21.5721 94.8093 25.8487Z"/>
</svg>
