<?xml version="1.0" standalone="no"?>
<!DOCTYPE svg PUBLIC "-//W3C//DTD SVG 20010904//EN"
 "http://www.w3.org/TR/2001/REC-SVG-20010904/DTD/svg10.dtd">
<svg version="1.0" xmlns="http://www.w3.org/2000/svg"
 width="800.000000pt" height="800.000000pt" viewBox="0 0 800.000000 800.000000"
 preserveAspectRatio="xMidYMid meet">
<metadata>
Created by potrace 1.14, written by Peter Selinger 2001-2017
</metadata>
<g transform="translate(0.000000,800.000000) scale(0.100000,-0.100000)"
fill="#000000" stroke="none">
<path d="M3818 7555 c-1 -1 -55 -6 -118 -9 -63 -4 -133 -9 -155 -12 -22 -2
-62 -6 -90 -8 -74 -6 -167 -17 -195 -22 -31 -5 -81 -12 -140 -18 -25 -3 -56
-7 -70 -10 -23 -4 -45 -8 -137 -22 -21 -3 -45 -7 -55 -10 -9 -3 -40 -9 -70
-14 -76 -13 -104 -19 -188 -36 -63 -13 -115 -25 -302 -70 -10 -2 -26 -6 -36
-8 -9 -2 -37 -9 -62 -16 -25 -7 -49 -13 -55 -14 -16 -4 -98 -27 -130 -37 -154
-47 -241 -72 -247 -71 -17 4 -47 -82 -74 -207 -3 -14 -7 -28 -10 -33 -3 -4 -7
-16 -9 -25 -2 -10 -15 -61 -29 -113 -14 -52 -28 -106 -32 -120 -3 -14 -33
-122 -65 -241 -32 -119 -60 -227 -63 -240 -3 -13 -14 -58 -26 -99 -22 -75
-125 -473 -135 -520 -3 -14 -9 -34 -12 -45 -7 -20 -8 -25 -17 -60 -5 -22 -32
-123 -66 -250 -12 -44 -23 -84 -24 -90 -2 -5 -9 -30 -16 -55 -8 -25 -14 -52
-15 -60 -1 -8 -5 -22 -8 -30 -5 -12 -26 -91 -43 -160 -2 -8 -19 -73 -39 -145
-20 -71 -43 -157 -51 -190 -8 -33 -19 -71 -24 -85 -5 -14 -11 -36 -14 -50 -2
-14 -16 -67 -30 -118 l-25 -94 125 -125 c69 -69 127 -123 130 -120 3 3 7 13 9
24 2 10 4 18 5 18 1 0 3 9 6 20 2 11 15 61 29 110 14 50 28 102 31 117 3 14
14 57 25 95 11 37 22 77 25 88 2 11 29 112 59 225 31 113 58 213 60 222 2 10
15 59 29 110 43 159 59 218 71 268 2 8 4 15 5 15 1 0 3 7 5 15 10 39 15 57 24
88 5 18 10 35 10 37 1 3 1 6 2 8 0 1 2 9 4 17 1 8 10 42 19 75 9 33 18 67 20
76 3 8 11 39 20 67 8 29 15 53 15 55 0 1 2 9 4 17 5 14 23 85 32 123 2 10 7
27 10 37 3 10 8 27 10 37 27 115 31 124 57 129 16 4 55 12 88 19 50 12 68 15
101 19 19 3 34 5 34 6 0 1 9 3 20 4 23 3 100 15 136 21 13 2 47 7 74 10 47 6
68 8 205 20 30 3 91 8 135 11 44 2 98 7 120 9 261 28 1026 21 1265 -10 25 -4
60 -8 79 -11 66 -8 166 -35 189 -50 12 -8 27 -12 32 -9 6 3 18 8 27 10 10 1
47 11 83 20 36 9 76 19 90 21 14 3 41 9 60 14 53 13 226 39 315 47 157 13 468
7 595 -13 100 -15 263 -48 320 -64 96 -27 204 -61 215 -68 6 -4 12 -7 15 -7
18 -1 193 -78 285 -125 157 -81 335 -190 343 -212 2 -4 10 -8 18 -8 8 0 14 -4
14 -10 0 -5 6 -10 14 -10 8 0 16 -3 18 -8 2 -4 23 -23 48 -42 25 -19 47 -37
50 -40 3 -3 37 -32 75 -65 117 -100 363 -354 414 -429 9 -11 28 -34 43 -51 15
-16 28 -33 28 -37 0 -4 6 -13 13 -20 27 -27 147 -196 147 -207 0 -6 4 -11 8
-11 5 0 19 -19 32 -42 13 -24 26 -45 30 -48 8 -6 117 -187 151 -250 13 -25 27
-47 30 -50 10 -9 229 -452 229 -465 0 -6 6 -20 14 -30 12 -16 12 -11 4 41 -6
32 -11 69 -11 82 -1 12 -4 22 -7 22 -3 0 -6 10 -7 23 0 12 -3 38 -7 57 -4 19
-11 60 -16 90 -6 30 -12 66 -15 80 -3 14 -8 43 -11 64 -3 22 -7 43 -9 46 -2 4
-7 29 -11 56 -3 27 -8 52 -10 55 -2 3 -6 21 -9 40 -6 35 -66 308 -91 414 -8
33 -16 69 -18 80 -3 11 -9 35 -15 54 -6 18 -10 36 -9 40 1 3 -2 13 -5 21 -5
12 -51 177 -61 215 -4 16 -56 179 -63 195 -3 8 -7 20 -8 25 -4 15 -83 212 -94
233 -5 9 -26 51 -47 92 -20 41 -50 94 -66 117 -15 23 -28 44 -28 47 0 3 -7 14
-15 23 -8 10 -57 76 -110 147 -53 71 -102 134 -108 141 -7 7 -32 37 -57 66
-56 66 -217 228 -290 291 -30 26 -68 59 -85 73 -52 46 -256 189 -353 248 -330
201 -782 372 -1202 453 -14 2 -36 7 -50 9 -57 12 -77 15 -115 20 -22 3 -51 7
-64 10 -24 4 -109 15 -171 20 -19 2 -62 6 -95 10 -33 4 -78 9 -100 12 -50 4
-732 13 -737 8z m702 -398 c97 -8 276 -28 305 -33 11 -2 40 -7 65 -10 101 -12
354 -67 485 -105 310 -88 547 -192 820 -359 39 -23 72 -46 73 -51 2 -5 8 -9
13 -9 9 0 155 -106 185 -135 6 -5 37 -32 69 -60 77 -67 178 -167 245 -245 30
-35 60 -68 65 -74 6 -6 44 -56 84 -111 41 -55 79 -107 85 -115 6 -8 -20 11
-59 41 -38 30 -86 66 -105 79 -19 14 -39 28 -45 33 -86 69 -411 247 -585 319
-31 13 -91 36 -110 43 -3 1 -12 4 -20 7 -68 26 -228 74 -269 83 -9 2 -36 8
-61 14 -67 17 -114 26 -180 36 -64 10 -85 13 -85 15 0 1 -45 6 -145 16 -141
14 -586 6 -650 -11 -8 -2 -37 -7 -65 -10 -66 -8 -102 -14 -150 -25 -22 -5 -56
-12 -75 -15 -19 -3 -53 -11 -75 -17 -44 -12 -100 -13 -118 -1 -6 4 -23 8 -37
9 -14 2 -38 5 -55 8 -16 3 -48 8 -70 11 -22 3 -55 8 -73 10 -19 3 -70 8 -115
10 -45 3 -118 8 -162 11 -191 13 -822 6 -1040 -12 -44 -3 -109 -7 -145 -9 -36
-2 -78 -6 -95 -8 -16 -3 -64 -8 -106 -12 -42 -3 -87 -8 -100 -10 -33 -7 -138
-18 -171 -19 -16 -1 -28 -3 -28 -6 0 -3 -15 -6 -34 -7 l-34 -2 19 67 c11 37
21 77 24 90 2 13 11 49 20 80 10 31 18 64 20 73 7 34 29 104 35 112 7 8 173
57 280 83 36 8 72 17 80 19 57 14 332 74 360 79 19 3 44 7 55 9 34 7 88 16
130 23 22 3 42 7 45 9 3 2 33 7 65 10 33 4 62 9 65 10 3 2 34 6 69 10 34 4 71
8 81 10 10 2 47 7 82 10 35 4 74 8 88 10 39 4 157 14 245 21 44 3 81 7 83 8 5
5 656 -2 722 -7z"/>
<path d="M840 3780 c0 -15 0 -17 -11 -52 -6 -18 -21 -76 -35 -128 -14 -52 -27
-102 -31 -110 -3 -8 -7 -22 -8 -30 -2 -14 -74 -287 -95 -360 -15 -52 -61 -223
-65 -240 -2 -8 -20 -76 -40 -150 -20 -74 -50 -187 -67 -250 -17 -63 -31 -121
-31 -127 0 -7 -5 -13 -10 -13 -6 0 -8 -3 -5 -6 3 -3 2 -21 -4 -41 -5 -19 -11
-43 -13 -52 -3 -9 -14 -50 -25 -91 -11 -41 -22 -82 -24 -90 -15 -57 -71 -267
-88 -324 -11 -38 -21 -76 -23 -85 -2 -9 -8 -36 -15 -61 -7 -25 -14 -52 -16
-60 -2 -8 -13 -49 -24 -90 -39 -141 -109 -406 -126 -470 -2 -8 -8 -31 -13 -50
-85 -308 -86 -325 -23 -391 30 -32 46 -40 84 -44 48 -6 105 11 132 38 18 17
44 69 50 98 5 22 23 89 77 289 12 41 22 82 24 90 2 8 18 67 35 130 17 63 33
122 35 130 1 8 15 58 30 110 14 52 28 106 31 120 3 14 14 56 25 95 19 65 24
85 34 125 2 8 4 15 5 15 1 0 3 7 5 15 1 8 8 35 15 60 7 25 13 50 14 55 1 6 5
16 9 23 5 6 6 12 3 12 -3 0 -1 11 4 25 5 14 12 36 14 48 4 25 35 135 43 157 3
8 7 22 8 30 1 8 12 51 24 95 12 44 23 87 26 95 2 8 16 60 30 115 15 55 28 107
30 115 2 8 4 15 5 15 1 0 3 7 5 15 1 8 9 38 18 65 8 28 15 53 16 58 0 4 1 8 2
10 0 1 2 9 4 18 1 9 10 41 18 70 9 30 18 65 21 79 3 14 12 46 20 73 8 26 15
48 15 50 -2 4 22 91 28 107 3 8 5 18 5 22 -1 4 4 27 12 50 13 40 26 87 32 115
1 7 14 54 27 105 14 51 28 105 31 120 6 24 -7 40 -115 148 -116 114 -139 133
-139 110z"/>
</g>
</svg>
